<?xml version="1.0" encoding="utf-8" standalone="no"?>
<!DOCTYPE svg PUBLIC "-//W3C//DTD SVG 1.1//EN" "http://www.w3.org/Graphics/SVG/1.1/DTD/svg11.dtd">
<svg width="381" height="254" version="1.1" xmlns:xlink="http://www.w3.org/1999/xlink" xmlns="http://www.w3.org/2000/svg">
  <rect x="0" y="0" width="381" height="254" style="fill:#151515;stroke:none;" />
  <polygon points="0,0 381,0 381,254 0,254" style="fill:#151515;stroke:none;" />
  <text dominant-baseline="hanging" text-anchor="middle" transform="translate(0,256)" font-family="HelveticaNeue-Light" font-size="9" font-weight="400" fill="none">0:00:00</text>
  <text dominant-baseline="hanging" text-anchor="middle" transform="translate(95.25,256)" font-family="HelveticaNeue-Light" font-size="9" font-weight="400" fill="none">0:15:00</text>
  <text dominant-baseline="hanging" text-anchor="middle" transform="translate(190.5,256)" font-family="HelveticaNeue-Light" font-size="9" font-weight="400" fill="none">0:30:00</text>
  <text dominant-baseline="hanging" text-anchor="middle" transform="translate(285.75,256)" font-family="HelveticaNeue-Light" font-size="9" font-weight="400" fill="none">0:45:00</text>
  <text dominant-baseline="hanging" text-anchor="middle" transform="translate(381,256)" font-family="HelveticaNeue-Light" font-size="9" font-weight="400" fill="none">1:00:00</text>
  <text dominant-baseline="middle" text-anchor="end" transform="translate(18,248)" font-family="HelveticaNeue-Light" font-size="9" font-weight="400" fill="none">0</text>
  <text dominant-baseline="middle" text-anchor="end" transform="translate(18,184.5)" font-family="HelveticaNeue-Light" font-size="9" font-weight="400" fill="none">100</text>
  <text dominant-baseline="middle" text-anchor="end" transform="translate(18,121)" font-family="HelveticaNeue-Light" font-size="9" font-weight="400" fill="none">200</text>
  <text dominant-baseline="middle" text-anchor="end" transform="translate(18,57.5)" font-family="HelveticaNeue-Light" font-size="9" font-weight="400" fill="none">300</text>
  <text dominant-baseline="middle" text-anchor="end" transform="translate(18,-6)" font-family="HelveticaNeue-Light" font-size="9" font-weight="400" fill="none">400</text>
  <polyline points="0,127 381,127" style="fill:none;stroke:#FFFFFF;stroke-width:1" />
  <polyline points="0,190.5 12.7,190.5 12.7,165.1 31.75,165.1 31.75,139.7 44.45,139.7 44.45,203.2 76.2,203.2 76.2,142.24 107.95,142.24 107.95,203.2 120.65,203.2 120.65,140.97 152.4,140.97 152.4,203.2 165.1,203.2 165.1,139.7 203.2,139.7 203.2,203.2 215.9,203.2 215.9,134.62 254,134.62 254,203.2 266.7,203.2 266.7,142.24 311.15,142.24 311.15,203.2 323.85,203.2 323.85,137.16 368.3,137.16 368.3,203.2 381,215.9" style="fill:none;stroke:#27A9E0;stroke-width:1;stroke-linejoin:bevel" />
  <polyline points="381,254 0,254" style="fill:none;stroke:#27A9E0;stroke-width:1;stroke-linejoin:bevel" />
  <polygon points="381,254 0,254 0,190.5 12.7,190.5 12.7,165.1 31.75,165.1 31.75,139.7 44.45,139.7 44.45,203.2 76.2,203.2 76.2,142.24 107.95,142.24 107.95,203.2 120.65,203.2 120.65,140.97 152.4,140.97 152.4,203.2 165.1,203.2 165.1,139.7 203.2,139.7 203.2,203.2 215.9,203.2 215.9,134.62 254,134.62 254,203.2 266.7,203.2 266.7,142.24 311.15,142.24 311.15,203.2 323.85,203.2 323.85,137.16 368.3,137.16 368.3,203.2 381,215.9" style="fill:#27A9E0;stroke:none;" />
  <polygon points="0,0 381,0 381,254 0,254" style="fill:none;stroke:black;stroke-width:0" />
</svg>